<svg width="16" height="16" viewBox="0 0 16 16" fill="#ED1438" xmlns="http://www.w3.org/2000/svg">
<g clip-path="url(#clip0_208_667)">
<path d="M12.0016 16.0016H3.8125C3.50584 16.0016 3.21175 15.8797 2.99491 15.6629C2.77807 15.4461 2.65625 15.152 2.65625 14.8453V3.97906C2.65625 3.67241 2.77807 3.37831 2.99491 3.16147C3.21175 2.94463 3.50584 2.82281 3.8125 2.82281H12.0031C12.3098 2.82281 12.6039 2.94463 12.8207 3.16147C13.0376 3.37831 13.1594 3.67241 13.1594 3.97906V14.8453C13.1594 14.9973 13.1294 15.1478 13.0712 15.2881C13.013 15.4285 12.9277 15.5561 12.8202 15.6635C12.7126 15.7708 12.585 15.856 12.4445 15.914C12.3041 15.972 12.1535 16.0018 12.0016 16.0016ZM4.21719 14.4391H11.5953V4.38531H4.21875L4.21719 14.4391Z "/>
<path d="M15.2188 14C15.0115 14 14.8128 13.9177 14.6663 13.7712C14.5198 13.6247 14.4375 13.426 14.4375 13.2188V1.5625H6.65625C6.44905 1.5625 6.25034 1.48019 6.10382 1.33368C5.95731 1.18716 5.875 0.98845 5.875 0.78125C5.875 0.57405 5.95731 0.375336 6.10382 0.228823C6.25034 0.08231 6.44905 0 6.65625 0L14.8438 0C15.1504 0 15.4445 0.121819 15.6613 0.338658C15.8782 0.555497 16 0.849593 16 1.15625V13.2188C16 13.426 15.9177 13.6247 15.7712 13.7712C15.6247 13.9177 15.426 14 15.2188 14Z" />
</g>
<defs>
<clipPath id="clip0_208_667">
<rect width="16" height="16" fill="white"/>
</clipPath>
</defs>
</svg>
