<svg width="30" height="30" viewBox="0 0 30 30" fill="none" xmlns="http://www.w3.org/2000/svg">
<path d="M28.125 6.75H1.875C0.841113 6.75 0 7.59111 0 8.625V25.875C0 26.9089 0.841113 27.75 1.875 27.75H28.125C29.1589 27.75 30 26.9089 30 25.875V8.625C30 7.59111 29.1589 6.75 28.125 6.75ZM27.75 25.5H2.25V9H27.75V25.5Z" fill="#ED1438"/>
<path d="M18.375 2.25H11.25C9.8025 2.25 8.625 3.4275 8.625 4.875V26.625H10.875V4.875C10.875 4.67174 11.0467 4.5 11.25 4.5H18.375C18.5783 4.5 18.75 4.67174 18.75 4.875V26.625H21V4.875C21 3.4275 19.8221 2.25 18.375 2.25Z" fill="#ED1438"/>
</svg>
