<svg width="15" height="14" viewBox="0 0 15 14" fill="none" xmlns="http://www.w3.org/2000/svg">
<g clip-path="url(#clip0_208_573)">
<path d="M13.8635 0H8.77264C8.4212 0 8.13627 0.284922 8.13627 0.636371C8.13627 0.98782 8.4212 1.27274 8.77264 1.27274H12.3272L5.77725 7.82277C5.52878 8.07125 5.52878 8.47418 5.77725 8.72271C5.90147 8.84693 6.06433 8.90909 6.22719 8.90909C6.39005 8.90909 6.55294 8.84693 6.67713 8.72268L13.2272 2.17268V5.72729C13.2272 6.07873 13.5121 6.36366 13.8636 6.36366C14.215 6.36366 14.4999 6.07873 14.4999 5.72729V0.636371C14.4999 0.284922 14.215 0 13.8635 0Z" fill="#ED1438"/>
<path d="M11.3182 6.36364C10.9667 6.36364 10.6818 6.64857 10.6818 7.00001V12.7273H1.77271V3.81819H7.5C7.85145 3.81819 8.13637 3.53326 8.13637 3.18181C8.13637 2.83037 7.85145 2.54547 7.5 2.54547H1.13637C0.784922 2.54547 0.5 2.83039 0.5 3.18184V13.3637C0.5 13.7151 0.784922 14 1.13637 14H11.3182C11.6696 14 11.9546 13.7151 11.9546 13.3636V7.00001C11.9545 6.64857 11.6696 6.36364 11.3182 6.36364Z" fill="#ED1438"/>
</g>
<defs>
<clipPath id="clip0_208_573">
<rect width="14" height="14" fill="white" transform="translate(0.5)"/>
</clipPath>
</defs>
</svg>
