<svg width="30" height="30" viewBox="0 0 30 30" fill="none" xmlns="http://www.w3.org/2000/svg">
<g clip-path="url(#clip0_227_1548)">
<path d="M29.6895 7.79266L22.2071 0.310326C21.7942 -0.102993 21.1257 -0.103344 20.7114 0.308568L12.2409 8.74381C12.0415 8.94215 11.9296 9.2118 11.9292 9.4931C11.9288 9.77406 12.0407 10.0441 12.2395 10.2428L14.1101 12.1133C14.5234 12.527 15.1939 12.527 15.6076 12.1133C16.0209 11.7 16.0209 11.0295 15.6076 10.6162L14.487 9.49557L21.4568 2.55469L27.4451 8.54266L20.5039 15.5129L19.3836 14.3926C18.97 13.979 18.3001 13.979 17.8865 14.3926C17.4728 14.806 17.4728 15.4765 17.8865 15.8898L19.7571 17.7604C19.9554 17.9591 20.2247 18.0707 20.5056 18.0707C20.506 18.0707 20.5064 18.0707 20.5067 18.0707C20.788 18.0703 21.0573 17.9581 21.256 17.759L29.6912 9.28844C30.1032 8.87477 30.1024 8.20528 29.6895 7.79266Z" fill="#ED1438"/>
<path d="M17.7606 19.7573L15.89 17.8867C15.4763 17.4731 14.8061 17.4731 14.3925 17.8867C13.9788 18.3004 13.9788 18.9706 14.3925 19.3839L15.5127 20.5045L8.54249 27.4454L2.55453 21.4571L9.49511 14.4872L10.6157 15.6074C11.029 16.0211 11.6996 16.0211 12.1132 15.6074C12.5269 15.1938 12.5269 14.5236 12.1132 14.1099L10.2426 12.2393C10.0443 12.041 9.77466 11.9294 9.49405 11.9294C9.4937 11.9294 9.49335 11.9294 9.493 11.9294C9.21169 11.9298 8.94239 12.0416 8.7437 12.2411L0.308408 20.7116C-0.103446 21.1257 -0.102743 21.7944 0.310165 22.2074L7.7925 29.6897C7.99898 29.8966 8.27003 30 8.54109 30C8.81144 30 9.08179 29.8973 9.28862 29.6915L17.7592 21.2563C17.9586 21.0579 18.0705 20.7883 18.0709 20.507C18.0712 20.2257 17.9593 19.956 17.7606 19.7573Z" fill="#ED1438"/>
<path d="M26.4781 24.9808L22.9839 21.4867C22.5703 21.073 21.9004 21.073 21.4868 21.4867C21.0731 21.9 21.0731 22.5706 21.4868 22.9839L24.9809 26.478C25.1877 26.6848 25.4584 26.7882 25.7295 26.7882C26.0005 26.7882 26.2712 26.6848 26.4781 26.478C26.8917 26.0647 26.8917 25.3941 26.4781 24.9808Z" fill="#ED1438"/>
<path d="M28.7131 19.8085L25.7131 18.2908C25.1914 18.0268 24.5548 18.2354 24.2904 18.7574C24.0264 19.2791 24.235 19.9161 24.757 20.1801L27.757 21.6978C27.9105 21.7754 28.0735 21.8121 28.2345 21.8121C28.621 21.8121 28.9933 21.5993 29.1797 21.2312C29.4437 20.7095 29.2351 20.0725 28.7131 19.8085Z" fill="#ED1438"/>
<path d="M21.6972 27.7574L20.1796 24.7574C19.9156 24.2354 19.2786 24.0272 18.7569 24.2908C18.2352 24.5548 18.0263 25.1915 18.2903 25.7135L19.808 28.7135C19.9946 29.0817 20.367 29.2945 20.7535 29.2945C20.9144 29.2945 21.0775 29.2574 21.2307 29.1801C21.7523 28.9161 21.9613 28.2794 21.6972 27.7574Z" fill="#ED1438"/>
<path d="M8.51346 7.01615L5.01935 3.52204C4.60603 3.10837 3.93549 3.10837 3.52217 3.52204C3.1085 3.93536 3.1085 4.60591 3.52217 5.01923L7.01628 8.51333C7.22276 8.72017 7.49381 8.82358 7.76487 8.82358C8.03592 8.82358 8.30697 8.72017 8.51346 8.51333C8.92713 8.10007 8.92713 7.42947 8.51346 7.01615Z" fill="#ED1438"/>
<path d="M11.7095 4.28688L10.1919 1.28689C9.92789 0.765233 9.29122 0.555585 8.76921 0.819959C8.2472 1.08398 8.03825 1.72066 8.30228 2.24267L9.81991 5.24266C10.0062 5.61115 10.3786 5.82361 10.7654 5.82361C10.926 5.82361 11.0895 5.78693 11.2426 5.70959C11.7646 5.44563 11.9736 4.80889 11.7095 4.28688Z" fill="#ED1438"/>
<path d="M5.24206 9.81957L2.24207 8.30194C1.72042 8.03757 1.08304 8.24686 0.819365 8.76887C0.555343 9.29088 0.764287 9.92756 1.2863 10.1916L4.28628 11.7092C4.4398 11.7869 4.60251 11.8236 4.76347 11.8236C5.1503 11.8236 5.52302 11.6111 5.70899 11.2423C5.97301 10.7203 5.76407 10.0836 5.24206 9.81957Z" fill="#ED1438"/>
</g>
<defs>
<clipPath id="clip0_227_1548">
<rect width="30" height="30" fill="white"/>
</clipPath>
</defs>
</svg>
