<svg width="20" height="20" viewBox="0 0 20 20" fill="none" xmlns="http://www.w3.org/2000/svg">
<g clip-path="url(#clip0_227_1161)">
<path d="M20 10.1272C20 9.70559 19.6583 9.36387 19.2366 9.36387L7.12469 9.36387C6.70305 9.36387 6.36133 9.70559 6.36133 10.1272C6.36133 10.5489 6.70305 10.8906 7.12469 10.8906L19.2366 10.8906C19.6583 10.8906 20 10.5489 20 10.1272Z" fill="#9C9C9C"/>
<path d="M15.8506 14.8723L19.7947 10.6484C20.0684 10.355 20.0684 9.89976 19.7947 9.60637L15.8506 5.38242C15.5629 5.0743 15.0799 5.0575 14.7718 5.34527C14.6107 5.49539 14.5293 5.69922 14.5293 5.90328C14.5293 6.09004 14.5972 6.27707 14.7346 6.42414L18.1924 10.1272L14.7346 13.8302C14.4468 14.1389 14.4636 14.6216 14.7718 14.9091C15.0799 15.1967 15.5629 15.1804 15.8506 14.8723Z" fill="#9C9C9C"/>
<path d="M13.4858 17.7608L13.4858 13.6896C13.4858 13.2679 13.1441 12.9262 12.7225 12.9262C12.3008 12.9262 11.9591 13.2679 11.9591 13.6896L11.9591 16.9975L1.52654 16.9975L1.52654 3.00254L11.9591 3.00254L11.9591 6.31043C11.9591 6.73207 12.3008 7.07379 12.7225 7.07379C13.1441 7.07379 13.4858 6.73207 13.4858 6.31043L13.4858 2.23918C13.4858 1.81754 13.1441 1.47582 12.7225 1.47582L0.763184 1.47582C0.341542 1.47582 -0.000175491 1.81754 -0.000175509 2.23918L-0.000176188 17.7608C-0.000176206 18.1825 0.341541 18.5242 0.763183 18.5242L12.7225 18.5242C13.1441 18.5242 13.4858 18.1825 13.4858 17.7608Z" fill="#9C9C9C"/>
</g>
<defs>
<clipPath id="clip0_227_1161">
<rect width="20" height="20" fill="white" transform="translate(20) rotate(90)"/>
</clipPath>
</defs>
</svg>
