<svg width="30" height="30" viewBox="0 0 30 30" fill="none" xmlns="http://www.w3.org/2000/svg">
<g clip-path="url(#clip0_227_1673)">
<path d="M28.6864 4.10255L0.970215 9.50177L1.42907 11.8573L29.1453 6.45803L28.6864 4.10255Z" fill="#ED1438"/>
<path d="M1.42899 17.8641L0.970215 20.2191L28.6864 25.6184L29.1451 23.2633L1.42899 17.8641Z" fill="#ED1438"/>
<path d="M1.2 7.48003C0.537187 7.48003 0 8.01721 0 8.68003V21.04C0 21.7028 0.537187 22.24 1.2 22.24C1.86281 22.24 2.4 21.7028 2.4 21.04V8.68003C2.4 8.01721 1.86281 7.48003 1.2 7.48003Z" fill="#ED1438"/>
<path d="M28.8003 1.24002C28.1375 1.24002 27.6003 1.77721 27.6003 2.44002V27.28C27.6003 27.9428 28.1375 28.48 28.8003 28.48C29.4632 28.48 30.0003 27.9428 30.0003 27.28V2.44002C30.0003 1.77721 29.4632 1.24002 28.8003 1.24002Z" fill="#ED1438"/>
<path d="M18.6801 22.76V26.36H8.08018V20.16H5.68018V27.56C5.68018 28.2228 6.21736 28.76 6.88018 28.76H19.8802C20.543 28.76 21.0802 28.2228 21.0802 27.56V22.76H18.6801Z" fill="#ED1438"/>
</g>
<defs>
<clipPath id="clip0_227_1673">
<rect width="30" height="30" fill="white"/>
</clipPath>
</defs>
</svg>
