<svg width="20" height="20" viewBox="0 0 20 20" fill="none" xmlns="http://www.w3.org/2000/svg">
<path d="M10.0002 5.82457C7.70428 5.82457 5.83643 7.69242 5.83643 9.98832C5.83643 12.2842 7.70428 14.1521 10.0002 14.1521C12.2958 14.1521 14.1639 12.2842 14.1639 9.98832C14.1639 7.69238 12.2958 5.82457 10.0002 5.82457ZM10.0002 12.7486C8.47807 12.7486 7.23994 11.5104 7.23994 9.98832C7.23994 8.46621 8.47807 7.22809 10.0002 7.22809C11.5223 7.22809 12.7604 8.46621 12.7604 9.98832C12.7604 11.5104 11.5223 12.7486 10.0002 12.7486Z" fill="#9C9C9C"/>
<path d="M18.5298 7.02621L17.5313 6.85988L18.0997 6.05121C18.6162 5.3623 18.5383 4.37332 17.935 3.80816L16.1572 2.03039C15.5497 1.42289 14.5799 1.35695 13.9154 1.865L13.1238 2.43973L12.9645 1.49562C12.8461 0.629023 12.1305 0 11.2632 0H8.73684C7.8868 0 7.15578 0.631094 7.03883 1.45191L6.87133 2.4573L6.06266 1.8891C5.37352 1.37215 4.3843 1.45004 3.81961 2.05355L2.04188 3.83133C1.43461 4.43836 1.36797 5.40816 1.87391 6.06945L2.45941 6.88676L1.50762 7.04746C0.640703 7.16559 0.0117188 7.8809 0.0117188 8.74852V11.2748C0.0117188 12.1389 0.629023 12.854 1.4634 12.9726L2.46879 13.1404L1.90059 13.949C1.38387 14.6379 1.46176 15.6269 2.06504 16.1918L3.84305 17.9698C4.16211 18.2891 4.61871 18.4796 5.06434 18.4796C5.43184 18.4796 5.78762 18.3582 6.08117 18.1378L6.89848 17.5523L7.05918 18.5041C7.17707 19.371 7.89262 20 8.76024 20H11.2866C12.1504 20 12.8657 19.3825 12.9841 18.5486L13.1518 17.5429L13.953 18.1057C14.2636 18.3385 14.6178 18.4566 15.0054 18.4566C15.4643 18.4566 15.8982 18.2753 16.2269 17.9466L18.0047 16.1689C18.6122 15.5618 18.6786 14.592 18.1656 13.9207L17.5628 13.1097L18.4926 12.953C19.3595 12.8346 19.9885 12.1191 19.9885 11.2517V8.72539C19.9886 7.87859 19.3623 7.14973 18.5298 7.02621ZM18.5848 11.251C18.5848 11.4141 18.4711 11.5387 18.2807 11.5652L16.1991 11.916C15.9584 11.9565 15.756 12.1195 15.6648 12.3462C15.5736 12.5729 15.607 12.8304 15.7525 13.0267L17.0447 14.7652C17.1322 14.8793 17.117 15.0716 17.0124 15.1761L15.2346 16.9539C15.1673 17.0213 15.0945 17.0526 15.0056 17.0526C14.9238 17.0526 14.8608 17.0318 14.7775 16.9698L13.0466 15.7534C12.8491 15.6143 12.5942 15.5876 12.372 15.6802C12.1497 15.7733 11.9904 15.9743 11.9509 16.2121L11.5975 18.3336C11.5757 18.4858 11.445 18.5965 11.2864 18.5965H8.76004C8.59746 18.5965 8.47254 18.483 8.44637 18.2926L8.09551 16.2107C8.05527 15.9721 7.89481 15.7712 7.67094 15.6788C7.58484 15.643 7.49387 15.6257 7.40356 15.6257C7.25922 15.6257 7.11582 15.6702 6.99488 15.7567L5.25125 17.0058C5.18926 17.0524 5.12633 17.076 5.06434 17.076C4.99231 17.076 4.88961 17.032 4.83531 16.9775L3.04117 15.1839C2.93895 15.0882 2.93168 14.9109 3.02504 14.789C3.0309 14.7815 3.03648 14.7738 3.04188 14.7661L4.25824 13.0351C4.39695 12.8377 4.42457 12.583 4.33145 12.3605C4.23836 12.1383 4.03742 11.979 3.79953 11.9395L1.67813 11.586C1.52586 11.5643 1.4152 11.4335 1.4152 11.2749V8.74859C1.4152 8.58578 1.5284 8.46109 1.71883 8.43469L3.8007 8.08383C4.03953 8.04359 4.24047 7.88312 4.33285 7.65926C4.42523 7.43539 4.39578 7.17973 4.25473 6.98301L3.00188 5.23438C2.91461 5.12 2.92961 4.92793 3.03414 4.8234L4.82758 3.02949C4.92348 2.92703 5.10055 2.92023 5.22266 3.01359C5.23016 3.01922 5.23762 3.0248 5.24535 3.0302L6.97633 4.24656C7.17352 4.38527 7.42824 4.41313 7.65094 4.31977C7.8734 4.22668 8.03246 4.02574 8.07199 3.78785L8.42543 1.66645C8.44719 1.51418 8.57793 1.40352 8.73652 1.40352H11.2629C11.4259 1.40352 11.5506 1.51695 11.5772 1.70762L11.9281 3.78949C11.9683 4.02902 12.1297 4.23066 12.3545 4.32258C12.5791 4.41426 12.8355 4.3834 13.0322 4.2407L14.7536 2.99039C14.8675 2.90313 15.0598 2.91789 15.1646 3.02266L16.9585 4.81609C17.0605 4.91176 17.0677 5.0893 16.9744 5.21117C16.969 5.21867 16.9632 5.22613 16.958 5.23387L15.7416 6.96484C15.6029 7.16227 15.5755 7.41699 15.6684 7.63945C15.7615 7.86191 15.9625 8.02098 16.2004 8.06051L18.3056 8.41137C18.311 8.4123 18.3164 8.41324 18.3218 8.41395C18.474 8.4357 18.5847 8.56645 18.5847 8.72504V11.251H18.5848Z" fill="#9C9C9C"/>
</svg>
