<svg width="30" height="30" viewBox="0 0 30 30" fill="none" xmlns="http://www.w3.org/2000/svg">
<path d="M20.2236 9.403H9.77587C9.15759 9.403 8.65649 9.90409 8.65649 10.5224C8.65649 11.1407 9.15759 11.6418 9.77587 11.6418H20.2236C20.8419 11.6418 21.343 11.1407 21.343 10.5224C21.343 9.90409 20.8419 9.403 20.2236 9.403Z" fill="#ED1438"/>
<path d="M20.2236 13.8806H9.77587C9.15759 13.8806 8.65649 14.3817 8.65649 15C8.65649 15.6183 9.15759 16.1194 9.77587 16.1194H20.2236C20.8419 16.1194 21.343 15.6183 21.343 15C21.343 14.3817 20.8419 13.8806 20.2236 13.8806Z" fill="#ED1438"/>
<path d="M20.2236 18.3582H9.77587C9.15759 18.3582 8.65649 18.8593 8.65649 19.4775C8.65649 20.0958 9.15759 20.5969 9.77587 20.5969H20.2236C20.8419 20.5969 21.343 20.0958 21.343 19.4775C21.343 18.8593 20.8419 18.3582 20.2236 18.3582Z" fill="#ED1438"/>
<path d="M14.9998 0C6.87294 0 0.260986 6.61195 0.260986 14.7388C0.260986 16.5854 0.600537 18.3922 1.27179 20.1123C1.79345 21.4336 2.4845 22.6474 3.33036 23.7302L1.32106 28.4414C1.15987 28.819 1.21847 29.2541 1.47329 29.5757C1.68786 29.8467 2.01247 30 2.3505 30C2.41431 30 2.47888 29.9948 2.54304 29.9832L10.1554 28.6548C11.68 29.2011 13.308 29.4776 14.9998 29.4776C23.1267 29.4776 29.7386 22.8656 29.7386 14.7388C29.7386 6.61195 23.1267 0 14.9998 0ZM14.9998 27.2388C13.474 27.2388 12.0147 26.9754 10.6625 26.4556C10.4733 26.3828 10.2677 26.3623 10.0685 26.3978L4.18894 27.4239L5.65612 23.9839C5.82405 23.5903 5.75274 23.135 5.47255 22.8115C4.58526 21.7877 3.87253 20.603 3.35614 19.2944C2.78784 17.8388 2.49979 16.3059 2.49979 14.7388C2.49979 7.84629 8.10721 2.23881 14.9998 2.23881C21.8923 2.23881 27.4998 7.84629 27.4998 14.7388C27.4998 21.6313 21.8923 27.2388 14.9998 27.2388Z" fill="#ED1438"/>
</svg>
